# xmcd
#
# Track frame offsets:
#       150
#       15317
#       27690
#       45054
#       63334
#       79590
#       91550
#       114570
#       132164
#       145997
#       159326
#       180022
#       190472
#       204643
#       222807
#       240845
#       251738
#       264878
#       283324
#
# Disc length: 3960 seconds
#
# Revision: 2
# Processed by: cddbd v1.5.2PL0 Copyright (c) Steve Scherf et al.
# Submitted via: FreeDbEdit v0.1
#
DISCID=f30f7613
DTITLE=Neil Young - Goin' Back to Canada
DYEAR=2005
DGENRE=Acid
TTITLE0=On the Way Home
TTITLE1=Tell Me Why
TTITLE2=Old Man
TTITLE3=Journey Through the Past
TTITLE4=Helpless
TTITLE5=Love in Mind
TTITLE6=Heart of Gold
TTITLE7=Cowgirl in the Sand
TTITLE8=Don't Let It Bring You Down
TTITLE9=There's a World
TTITLE10=Bad Fog of Loneliness
TTITLE11=The Needle and the Damage Done
TTITLE12=Ohio
TTITLE13=See the Sky About to Rain
TTITLE14=Down by the River
TTITLE15=Dance, Dance
TTITLE16=I Am a Child
TTITLE17=Out on the Weekend
TTITLE18=Journey Through the Past
EXTD=
EXTT0=
EXTT1=
EXTT2=
EXTT3=
EXTT4=
EXTT5=
EXTT6=
EXTT7=
EXTT8=
EXTT9=
EXTT10=
EXTT11=
EXTT12=
EXTT13=
EXTT14=
EXTT15=
EXTT16=
EXTT17=
EXTT18=
PLAYORDER=
